<svg xmlns="http://www.w3.org/2000/svg" width="12" height="13" viewBox="0 0 12 13" fill="none">
  <g clip-path="url(#clip0_215_33)">
    <path d="M6 1.26709C6.19891 1.26709 6.38968 1.34652 6.53033 1.48791C6.67098 1.6293 6.75 1.82107 6.75 2.02102V4.73619L9.089 3.3781C9.26117 3.2797 9.46507 3.25375 9.6562 3.30592C9.84733 3.35808 10.0102 3.48412 10.1092 3.65654C10.2082 3.82895 10.2354 4.03374 10.1848 4.22622C10.1342 4.41869 10.0099 4.58323 9.839 4.68392L7.5 6.042L9.839 7.39959C10.0099 7.50027 10.1342 7.66481 10.1848 7.85728C10.2354 8.04976 10.2082 8.25455 10.1092 8.42697C10.0102 8.59938 9.84733 8.72542 9.6562 8.77759C9.46507 8.82975 9.26117 8.8038 9.089 8.7054L6.75 7.34832V10.063C6.75 10.2629 6.67098 10.4547 6.53033 10.5961C6.38968 10.7375 6.19891 10.8169 6 10.8169C5.80109 10.8169 5.61032 10.7375 5.46967 10.5961C5.32902 10.4547 5.25 10.2629 5.25 10.063V7.34782L2.911 8.7059C2.82567 8.75619 2.73129 8.78901 2.63329 8.80248C2.5353 8.81595 2.43561 8.8098 2.33999 8.78438C2.24437 8.75897 2.15469 8.71479 2.07612 8.6544C1.99754 8.594 1.93163 8.51858 1.88218 8.43247C1.83272 8.34636 1.8007 8.25127 1.78795 8.15267C1.7752 8.05407 1.78198 7.95391 1.80789 7.85796C1.83381 7.762 1.87835 7.67215 1.93895 7.59357C1.99955 7.51499 2.07502 7.44923 2.161 7.40009L4.5 6.042L2.161 4.68442C1.99015 4.58373 1.86584 4.4192 1.81522 4.22672C1.7646 4.03424 1.79177 3.82945 1.89079 3.65704C1.98982 3.48462 2.15267 3.35858 2.3438 3.30642C2.53493 3.25426 2.73883 3.28021 2.911 3.37861L5.25 4.73569V2.02102C5.25 1.82107 5.32902 1.6293 5.46967 1.48791C5.61032 1.34652 5.80109 1.26709 6 1.26709Z" fill="#F98012"/>
  </g>
  <defs>
    <clipPath id="clip0_215_33">
      <rect width="12" height="12.0629" fill="white" transform="translate(0 0.010498)"/>
    </clipPath>
  </defs>
</svg>