<svg xmlns="http://www.w3.org/2000/svg" width="12" height="12" viewBox="0 0 12 12" fill="none">
<path d="M1.758 10.242C1.18494 9.68852 0.727844 9.02645 0.41339 8.29443C0.0989364 7.5624 -0.066581 6.77508 -0.0735039 5.97841C-0.0804268 5.18173 0.0713834 4.39165 0.373069 3.65427C0.674754 2.9169 1.12027 2.24699 1.68363 1.68363C2.24699 1.12027 2.9169 0.674754 3.65427 0.373069C4.39165 0.0713834 5.18173 -0.0804268 5.97841 -0.0735039C6.77508 -0.066581 7.5624 0.0989364 8.29443 0.41339C9.02645 0.727844 9.68852 1.18494 10.242 1.758C11.3349 2.88961 11.9397 4.40523 11.926 5.97841C11.9124 7.55159 11.2814 9.05646 10.1689 10.1689C9.05646 11.2814 7.55159 11.9124 5.97841 11.926C4.40523 11.9397 2.88961 11.3349 1.758 10.242ZM9.396 9.396C10.2967 8.49532 10.8027 7.27375 10.8027 6C10.8027 4.72625 10.2967 3.50467 9.396 2.604C8.49532 1.70332 7.27375 1.19733 6 1.19733C4.72625 1.19733 3.50467 1.70332 2.604 2.604C1.70332 3.50467 1.19733 4.72625 1.19733 6C1.19733 7.27375 1.70332 8.49532 2.604 9.396C3.50467 10.2967 4.72625 10.8027 6 10.8027C7.27375 10.8027 8.49532 10.2967 9.396 9.396ZM5.4 3H6.6V6.6H5.4V3ZM5.4 7.8H6.6V9H5.4V7.8Z" fill="#F98012"/>
</svg>